<svg id="Layer_1" data-name="Layer 1" xmlns="http://www.w3.org/2000/svg" viewBox="0 0 696.98 288.12"><defs><style>.cls-1{fill:#ab4b30;}.cls-2{fill:#231f20;}.cls-3{fill:#6b2210;}.cls-4{fill:#fff;}.cls-5{fill:#f5eb1f;}</style></defs><title>SuperDog</title><path class="cls-1" d="M529.49,99.65s18.81-31.14,8.41-51.46-35.76-27.94-35.76-27.94l-22.92,36s23,16.8,25.94,24.4-1.94,25.64-1.94,25.64" transform="translate(-7.94 -17.87)"/><path class="cls-2" d="M529.49,99.65c1-1.86,1.86-3.76,2.69-5.68s1.63-3.85,2.36-5.8a91,91,0,0,0,3.61-11.92A57.34,57.34,0,0,0,539.71,64a40.16,40.16,0,0,0-.37-6.05,28.89,28.89,0,0,0-1.42-5.8l-.54-1.38c-.2-.45-.43-.89-.64-1.33l-.16-.33L536.5,49l0,0v0l0,0-.05-.08-.41-.67-.81-1.35-.81-1.35c-.28-.43-.58-.8-.87-1.21-.6-.79-1.14-1.6-1.78-2.37l-2-2.28c-.66-.76-1.43-1.43-2.14-2.15-.37-.35-.71-.72-1.09-1.05l-1.16-1c-.78-.65-1.53-1.34-2.36-1.93s-1.61-1.24-2.45-1.81L518,30l-2.61-1.59c-.88-.52-1.79-1-2.68-1.49S510.92,26,510,25.56s-1.85-.86-2.79-1.27c-1.86-.8-3.81-1.56-5.65-2.14l2.25-.84-11.51,18c-3.83,6-7.76,11.92-11.63,17.89l-.44-2.32c2.09,1.57,4.11,3.17,6.12,4.82s4,3.32,5.95,5c1,.87,2,1.71,2.9,2.6S497.12,69.07,498,70s1.83,1.87,2.74,2.81,1.77,1.94,2.57,3a16.24,16.24,0,0,1,1.19,1.62,11.53,11.53,0,0,1,1.06,1.78l.46,1,0,.06v0l0,.08h0l0,.12.06.23.12.47a12.55,12.55,0,0,1,.38,2,25.48,25.48,0,0,1,.15,4q-.06,2-.3,3.92c-.14,1.3-.36,2.58-.58,3.86s-.49,2.55-.76,3.81c-.57,2.52-1.24,5-2,7.49.53-2.52.94-5.07,1.3-7.61.18-1.27.34-2.55.46-3.82s.23-2.55.28-3.82.09-2.55,0-3.8a24,24,0,0,0-.37-3.69,10.15,10.15,0,0,0-.45-1.76l-.15-.46-.08-.23,0-.11h0l0,.05v0l0,0-.42-.76a9.72,9.72,0,0,0-1-1.49,14.48,14.48,0,0,0-1.17-1.44c-.79-1-1.71-1.83-2.59-2.74s-1.82-1.76-2.79-2.59c-1.89-1.7-3.85-3.35-5.83-5s-4-3.19-6-4.74-4.11-3.08-6.16-4.56l-1.3-.94.86-1.38c3.77-6,7.48-12.1,11.29-18.11l11.41-18,.82-1.3,1.43.47c2.15.7,4.1,1.48,6.08,2.35,1,.43,2,.9,2.92,1.35s1.92,1,2.86,1.47,1.88,1,2.8,1.58l2.74,1.7,2.66,1.83c.88.63,1.71,1.32,2.56,2S527,32,527.8,32.71L529,33.78c.4.37.76.77,1.15,1.15.74.79,1.54,1.52,2.24,2.35l2.09,2.5c.68.85,1.29,1.8,1.93,2.7.31.46.65.91.92,1.37l.76,1.37.76,1.37.38.69,0,.09,0,.09v0l0,0,.08.19.17.38c.22.51.46,1,.66,1.53l.54,1.57a31.85,31.85,0,0,1,1.33,6.44,37.36,37.36,0,0,1,.12,6.49,50.62,50.62,0,0,1-.8,6.38A59.29,59.29,0,0,1,540,76.73a85.29,85.29,0,0,1-4.47,11.86A88.87,88.87,0,0,1,529.49,99.65Z" transform="translate(-7.94 -17.87)"/><path class="cls-3" d="M422.65,209.32l54,32.67s36-4.67,34.67,0,1.33,19.33-4.67,20S470,252.65,470,252.65l-87.33-17.33" transform="translate(-7.94 -17.87)"/><path class="cls-2" d="M422.65,209.32q6.92,3.81,13.79,7.69l13.72,7.8,13.67,7.88,13.63,8-1-.21c4-.56,7.91-1.05,11.89-1.44s8-.72,12-.87c2-.07,4-.1,6.13,0a21.37,21.37,0,0,1,3.25.39,7.14,7.14,0,0,1,1.93.68,3.24,3.24,0,0,1,1.27,1.2,2.69,2.69,0,0,1,.36,1.24,3.3,3.3,0,0,1-.11.9l-.09.36,0,.25c0,.15-.05.41-.08.6,0,.44-.08.9-.1,1.37,0,.94-.05,1.92-.06,2.9,0,2,0,4-.14,6.07a18.32,18.32,0,0,1-1.39,6.54,6.88,6.88,0,0,1-1.18,1.72,5,5,0,0,1-2,1.31,5.36,5.36,0,0,1-1.15.29h-1.7l-.87-.08c-.56-.06-1.21-.11-1.69-.21l-1.52-.27c-1-.18-2-.42-3-.63q-3-.68-5.85-1.46c-3.87-1-7.7-2.15-11.52-3.3s-7.61-2.35-11.4-3.62l.21.06-21.79-4.55-21.76-4.69-10.87-2.4-10.86-2.45-10.85-2.5-10.84-2.57,11,1.76,11,1.84,11,1.88,11,1.94,21.9,4,21.88,4.11.09,0,.13,0c3.77,1.17,7.57,2.32,11.36,3.45s7.6,2.2,11.41,3.19q2.86.74,5.72,1.39c.95.19,1.91.42,2.85.58s1.92.34,2.67.41l.61.08h1.28a1.39,1.39,0,0,0,.29-.07c.32-.09.65-.42,1-1a15,15,0,0,0,1-5.06c.14-1.89.14-3.84.17-5.84,0-1,0-2,.08-3.05,0-.52.07-1.06.12-1.6,0-.29.06-.53.12-.87l.09-.48.09-.36c.05-.22,0,0,0,.17a1.17,1.17,0,0,0,.15.53c.19.28.22.24.17.22a3.78,3.78,0,0,0-.88-.29,18.45,18.45,0,0,0-2.66-.36c-1.88-.14-3.83-.14-5.78-.11-3.91.08-7.85.33-11.78.64s-7.88.69-11.8,1.12l-.57.06-.44-.28L462.46,235l-13.33-8.45L435.86,218Q429.23,213.68,422.65,209.32Z" transform="translate(-7.94 -17.87)"/><path class="cls-3" d="M133.49,242.33l-16.16,21.72s-14,16-20,16H74L61.33,296.72s.67,8,6.67,7.33,23.33-13.33,23.33-13.33a97.81,97.81,0,0,0,18.55.67c9.45-.67,95.78-71.44,95.78-71.44" transform="translate(-7.94 -17.87)"/><path class="cls-2" d="M133.49,242.33c-2.57,3.71-5.12,7.44-7.73,11.12L118,264.52h0l0,0a115.54,115.54,0,0,1-8.49,9.09c-1.51,1.43-3.06,2.83-4.73,4.13-.84.65-1.7,1.27-2.63,1.85A13.8,13.8,0,0,1,99,281.1c-.29.09-.61.15-.92.22s-.74.08-1,.07l-1.54,0-3.08,0-6.17.08L74,281.72l1.32-.66L62.8,297.84l.37-1.27a11.24,11.24,0,0,0,.43,1.95,8.77,8.77,0,0,0,.77,1.78,4.41,4.41,0,0,0,1.07,1.26,2.69,2.69,0,0,0,1.3.55,3.62,3.62,0,0,0,.37.05l.41,0h.27l-.15,0h0l.15,0,.58-.12a4.53,4.53,0,0,0,.55-.13l.43-.16c.3-.12.56-.17.92-.35a41.27,41.27,0,0,0,4.08-2c1.36-.74,2.7-1.54,4-2.35s2.65-1.67,4-2.53c2.62-1.73,5.23-3.53,7.76-5.37l.65-.47.82.11c2.73.36,5.6.61,8.41.75s5.65.16,8.45,0l1-.06h.1l.27,0a1,1,0,0,0,.33-.09l.11,0,.21-.08L111,289c.3-.14.59-.25.89-.41,1.2-.59,2.42-1.29,3.62-2,2.41-1.46,4.79-3,7.16-4.65,4.74-3.21,9.42-6.55,14.06-9.94l13.88-10.27,13.79-10.41,13.76-10.46,27.53-20.94-6.51,5.7-6.58,5.62-13.21,11.17-13.36,11c-4.47,3.64-9,7.23-13.51,10.82s-9.08,7.13-13.69,10.6-9.25,6.92-14,10.25c-2.38,1.66-4.8,3.27-7.31,4.81-1.26.77-2.54,1.51-3.92,2.21a14.78,14.78,0,0,1-2.36,1,5.82,5.82,0,0,1-.72.17l-.27,0h0l-.19,0h-.21l-1.11.07c-3,.17-5.9.15-8.83,0s-5.83-.34-8.81-.76l1.47-.36c-2.63,1.89-5.26,3.69-8,5.44-1.35.87-2.71,1.74-4.09,2.57s-2.77,1.66-4.22,2.43a44.91,44.91,0,0,1-4.49,2.17c-.36.17-.87.32-1.32.48l-.69.22a6,6,0,0,1-.61.14l-.58.12-.15,0h0l-.18,0h-1.3a7.57,7.57,0,0,1-.81-.11,6.39,6.39,0,0,1-3-1.34,8.18,8.18,0,0,1-2-2.36,12.48,12.48,0,0,1-1.08-2.6,14.53,14.53,0,0,1-.53-2.72l-.07-.7.44-.57L72.68,279l.52-.67H74l12.33.17,6.17.08,3.08,0,1.54,0c.3,0,.39,0,.58,0s.38-.06.58-.12a11.37,11.37,0,0,0,2.51-1.1c.84-.48,1.66-1,2.48-1.61,1.62-1.17,3.18-2.46,4.71-3.8,3-2.7,6-5.57,8.76-8.53l0,0,8.36-10.65C127.84,249.37,130.68,245.86,133.49,242.33Z" transform="translate(-7.94 -17.87)"/><path class="cls-1" d="M219.42,195.83S322,184.67,353.86,184.67s90.34,11.16,90.34,11.16L414.44,249s-13.82,8-55.8,5.85-91.93-27.1-134.44-25S139.18,258,129.08,258s-32.42-12.75-32.42-12.75l18.07-41.45Z" transform="translate(-7.94 -17.87)"/><path class="cls-2" d="M219.42,195.83q28.09-3.06,56.22-5.76c9.38-.91,18.75-1.82,28.14-2.63l14.08-1.19c4.7-.36,9.39-.75,14.09-1.07l7.05-.47,7.06-.36c2.36-.11,4.72-.14,7.08-.21s4.72,0,7.08.06l7.09.32,7.06.49,7,.63,7,.73q7,.79,14,1.71t14,2q14,2.07,27.93,4.55l1.72.31-.85,1.55L415.94,249.8l-.24.43-.4.22c-.52.28-.89.45-1.33.64s-.84.35-1.26.52c-.84.33-1.68.61-2.52.88-1.69.53-3.38,1-5.09,1.38-3.4.82-6.84,1.34-10.28,1.83a178.68,178.68,0,0,1-20.69,1.35c-1.73,0-3.45,0-5.17,0s-3.45,0-5.17-.11l-5.16-.19-5.18-.41-2.56-.21c-.85-.08-1.72-.22-2.59-.33l-5.18-.7c-1.73-.23-3.41-.59-5.11-.88s-3.41-.58-5.09-1c-6.74-1.42-13.45-3-20.08-4.75s-13.24-3.58-19.84-5.37l-9.9-2.67L273.19,238c-6.63-1.55-13.26-3.1-20-4.18-1.67-.27-3.34-.58-5-.83l-5-.6-2.52-.3c-.84-.09-1.68-.12-2.53-.18l-5.05-.31c-1.69-.11-3.37,0-5.05,0l-2.53,0h-1.23l-1.28.08-2.56.16-2.5.24c-1.67.13-3.35.38-5,.57a198.47,198.47,0,0,0-39.4,10.12c-6.42,2.28-12.77,4.78-19.1,7.37s-12.59,5.32-19.17,7.55A27,27,0,0,1,130,258.9l-.72,0h-.41l-.32,0-1.28-.1c-.86-.09-1.78-.3-2.67-.46a63.15,63.15,0,0,1-9.86-3.33,173.86,173.86,0,0,1-18.46-9.19l-.54-.3L96,245l18.39-41.31.08-.18h.2l52.36-3.74Zm0,0-52.34,4.07-52.32,4.23.28-.2L97.29,245.52l-.29-.87a172.43,172.43,0,0,0,18.42,8.82,61.54,61.54,0,0,0,9.62,3.09c.8.12,1.56.3,2.4.38l1.28.08.32,0h.08s-.07,0,0,0h.14l.56,0a25.37,25.37,0,0,0,4.75-1.25c6.36-2.26,12.6-5.14,18.91-7.79s12.65-5.31,19.09-7.7a201.37,201.37,0,0,1,39.84-10.88c1.72-.23,3.42-.51,5.16-.67l2.6-.27,2.56-.18,1.28-.09,1.33,0,2.61,0c1.74,0,3.48-.12,5.21,0l5.2.27c.86.05,1.73.07,2.6.16l2.58.28,5.16.57c1.71.24,3.41.53,5.12.79,6.83,1,13.56,2.53,20.26,4.1l10,2.5,9.94,2.64c6.61,1.78,13.21,3.61,19.82,5.3s13.22,3.32,19.87,4.73c1.66.37,3.33.63,5,1s3.34.65,5,.88l5,.69c.84.11,1.65.25,2.5.33l2.56.21,5.06.42,5.09.2c1.7.08,3.4.11,5.09.13s3.4.07,5.09,0a175,175,0,0,0,20.27-1.13c3.34-.45,6.68-.92,9.94-1.67,1.63-.37,3.25-.78,4.83-1.26.78-.25,1.57-.5,2.33-.79.38-.15.76-.28,1.12-.45s.75-.34,1-.46l-.64.65,30.15-52.92.87,1.86q-13.83-2.69-27.78-5-7-1.14-13.94-2.17t-14-1.92l-7-.84-7-.73-7-.6-7-.43c-2.35-.06-4.72-.16-7-.17s-4.7,0-7,.1l-7.05.25-7.05.36c-9.4.51-18.8,1.19-28.18,1.94s-18.77,1.55-28.16,2.37Q247.52,192.84,219.42,195.83Z" transform="translate(-7.94 -17.87)"/><path class="cls-1" d="M107.09,221.33,66,262.67s-14,16-20,16H22.67L10,295.33s.67,8,6.67,7.33S40,289.33,40,289.33a97.81,97.81,0,0,0,18.55.67c9.45-.67,68.79-40.67,68.79-40.67" transform="translate(-7.94 -17.87)"/><path class="cls-2" d="M107.09,221.33c-3,3.29-6.08,6.6-9.17,9.85L88.69,241q-4.6,4.91-9.26,9.76l-9.3,9.72-2.34,2.42-.58.6-.15.15,0,0,0,0,0,0-.07.08-.28.33-1.13,1.28q-2.27,2.53-4.67,5c-1.6,1.61-3.25,3.19-5,4.69a34.92,34.92,0,0,1-5.73,4.14,9.63,9.63,0,0,1-3.89,1.29l-.3,0H42.84l-6.73.06c-4.48,0-9,.08-13.45.09l1.54-.76-12.62,16.7.4-1.37a11.08,11.08,0,0,0,.41,1.92,8.79,8.79,0,0,0,.75,1.76,4.35,4.35,0,0,0,1,1.25,2.54,2.54,0,0,0,1.26.55,3.53,3.53,0,0,0,.36.06h.66l-.15,0h0l.15,0,.58-.12a4.54,4.54,0,0,0,.55-.13l.43-.16c.3-.12.55-.17.91-.34a41.15,41.15,0,0,0,4.09-2c1.36-.73,2.71-1.52,4-2.33s2.66-1.65,4-2.51c2.63-1.71,5.24-3.51,7.8-5.31l.64-.45.75.11c1.94.28,4,.49,6,.65s4,.25,6.05.29,4,0,6-.12l.61-.1.37-.06.28-.09c.38-.12.75-.21,1.23-.4.9-.32,1.82-.73,2.74-1.11,1.83-.83,3.66-1.7,5.47-2.65s3.61-1.9,5.41-2.88c3.59-2,7.13-4,10.69-6.08s7.08-4.16,10.6-6.28l10.56-6.36,21-12.93c-3.33,2.41-6.66,4.83-10,7.17l-10.16,7c-3.4,2.32-6.79,4.65-10.24,6.9s-6.9,4.5-10.38,6.71-7,4.35-10.56,6.45c-1.78,1-3.58,2.08-5.4,3.08s-3.67,2-5.56,2.89c-1,.44-1.92.89-3,1.27a15.46,15.46,0,0,1-1.7.57l-.45.13-.39.07-.38.07-.19,0-.09,0-.19,0h0c-2.1.16-4.2.23-6.3.23s-4.19-.06-6.28-.19-4.15-.3-6.29-.57l1.39-.34c-2.6,1.92-5.22,3.73-7.91,5.5-1.34.88-2.7,1.75-4.07,2.59s-2.77,1.67-4.2,2.45a44.83,44.83,0,0,1-4.48,2.19c-.36.17-.87.33-1.32.48l-.7.23a6,6,0,0,1-.61.14l-.58.12-.15,0h0l-.18,0h-.12l-.4,0-.79,0a7.62,7.62,0,0,1-.82-.1,6.54,6.54,0,0,1-3.05-1.34,8.3,8.3,0,0,1-2-2.37,12.52,12.52,0,0,1-1.11-2.62A14.63,14.63,0,0,1,8,295.5l-.08-.74.48-.62L21.13,277.5l.58-.76h1c4.48,0,9,0,13.45.09l6.73.06h3.27a6.48,6.48,0,0,0,2.44-.83,34.21,34.21,0,0,0,5.22-3.63c1.69-1.38,3.33-2.86,4.93-4.38s3.17-3.1,4.69-4.71l1.13-1.21.28-.3.07-.07.13-.14.15-.15.6-.59,2.4-2.35,9.67-9.36q4.82-4.69,9.71-9.32l9.74-9.28C100.53,227.45,103.82,224.4,107.09,221.33Z" transform="translate(-7.94 -17.87)"/><path class="cls-1" d="M416,225.33,470,258s36-4.67,34.67,0S506,277.33,500,278s-36.67-9.33-36.67-9.33L376,251.33" transform="translate(-7.94 -17.87)"/><path class="cls-2" d="M416,225.33q6.92,3.81,13.79,7.69l13.72,7.8,13.67,7.88,13.63,8-1-.21c4-.56,7.91-1.05,11.89-1.44s8-.72,12-.87c2-.07,4-.1,6.13,0a21.37,21.37,0,0,1,3.25.39,7.14,7.14,0,0,1,1.93.68,3.24,3.24,0,0,1,1.27,1.2,2.69,2.69,0,0,1,.36,1.24,3.3,3.3,0,0,1-.11.9l-.09.36,0,.25c0,.15-.05.41-.08.6,0,.44-.08.9-.1,1.37,0,.94-.05,1.92-.06,2.9,0,2,0,4-.14,6.07a18.32,18.32,0,0,1-1.39,6.54,6.88,6.88,0,0,1-1.18,1.72,5,5,0,0,1-2,1.31,5.36,5.36,0,0,1-1.15.29h-1.7l-.87-.08c-.56-.06-1.21-.11-1.69-.21l-1.52-.27c-1-.18-2-.42-3-.63q-3-.68-5.85-1.46c-3.87-1-7.7-2.15-11.52-3.3s-7.61-2.35-11.4-3.62l.21.06-21.79-4.55-21.76-4.69-10.87-2.4-10.86-2.45-10.85-2.5L376,251.33l11,1.76,11,1.84,11,1.88,11,1.94,21.9,4,21.88,4.11.09,0,.13,0c3.77,1.17,7.57,2.32,11.36,3.45s7.6,2.2,11.41,3.19q2.86.74,5.72,1.39c.95.19,1.91.42,2.85.58s1.92.34,2.67.41l.61.08h1.28a1.39,1.39,0,0,0,.29-.07c.32-.09.65-.42,1-1a15,15,0,0,0,1-5.06c.14-1.89.14-3.84.17-5.84,0-1,0-2,.08-3.05,0-.52.07-1.06.12-1.6,0-.29.06-.53.13-.87l.09-.48.09-.36c.05-.22,0,0,0,.17a1.17,1.17,0,0,0,.15.53c.19.28.22.24.17.22a3.78,3.78,0,0,0-.88-.29,18.45,18.45,0,0,0-2.66-.36c-1.88-.14-3.83-.14-5.78-.11-3.91.08-7.85.33-11.78.64s-7.88.69-11.8,1.12l-.57.06-.44-.28L455.81,251l-13.33-8.45L429.21,234Q422.58,229.69,416,225.33Z" transform="translate(-7.94 -17.87)"/><path class="cls-1" d="M427.68,225.33,473,186.07A55.27,55.27,0,0,0,495.85,191c16.13,0,61,1,71.48,3.67,18.67,4.67,92.14.49,92.14.49L701,142H551a55.5,55.5,0,1,0-110.61-6.5,55.32,55.32,0,0,0,3.88,20.37h0s-2.87,15.48-9.54,23.48-36,16-36,18" transform="translate(-7.94 -17.87)"/><path class="cls-2" d="M427.68,225.33l22.41-19.91,22.46-19.85.31-.28.39.17a54.55,54.55,0,0,0,22.46,4.64c7.82-.07,15.64,0,23.46.19s15.64.39,23.46.75c3.91.18,7.82.4,11.73.68s7.82.61,11.79,1.3c1,.2,1.93.41,2.9.61s1.85.31,2.79.46q2.85.37,5.75.58c3.86.29,7.74.45,11.63.53,7.78.17,15.58.12,23.37,0s15.59-.4,23.39-.69,15.6-.65,23.38-1.09l-1.28.67,41.43-53.24,1.5,3.07L663.5,144c-12.5,0-25,0-37.51,0l-75-.15h-2l.24-2a54.41,54.41,0,0,0,.39-6.09l-.07-3.09c-.09-1-.13-2-.24-3a54.25,54.25,0,0,0-2.67-11.88,52.11,52.11,0,0,0-5.29-11,53.93,53.93,0,0,0-7.62-9.51,56.8,56.8,0,0,0-9.57-7.58,53.93,53.93,0,0,0-23-7.89A57.17,57.17,0,0,0,495,81.5c-1,0-2.11,0-3.1.12l-1.51.11-1.52.18A53.36,53.36,0,0,0,477,84.75a55.18,55.18,0,0,0-11,5.51,54.74,54.74,0,0,0-17,17.62,53.91,53.91,0,0,0-7.52,23.34,54.34,54.34,0,0,0,3.39,24.38l.76,2-1.81-1.11h0l1.09-.49a82.15,82.15,0,0,1-2.14,8.07,68,68,0,0,1-3,7.78,35.94,35.94,0,0,1-4.27,7.2,14.7,14.7,0,0,1-3.06,2.93,34.86,34.86,0,0,1-3.52,2.25A115,115,0,0,1,413.8,191l-7.75,2.89c-1.29.48-2.58,1-3.85,1.49-.64.26-1.27.53-1.89.82-.31.15-.62.3-.91.48s-.63.35-.72.69c.08-.35.44-.52.71-.72s.6-.35.9-.5c.62-.31,1.24-.6,1.88-.87,1.26-.55,2.54-1.07,3.82-1.59l7.67-3.09c2.55-1,5.08-2.13,7.58-3.28a80.36,80.36,0,0,0,7.32-3.76,34,34,0,0,0,3.39-2.26,13.71,13.71,0,0,0,2.84-2.82,34.92,34.92,0,0,0,4-7.07,66.78,66.78,0,0,0,2.78-7.7,81,81,0,0,0,1.94-7.95l.19-1,.9.52h0l-1,.89a56,56,0,0,1-4-25.07,56.72,56.72,0,0,1,25-43A57.83,57.83,0,0,1,476,82.2,56.16,56.16,0,0,1,488.52,79l1.6-.21,1.63-.13c1.1-.11,2.14-.13,3.19-.16a60,60,0,0,1,6.48.21,57.11,57.11,0,0,1,24.42,8.07,57,57,0,0,1,18.36,18.07,55.59,55.59,0,0,1,5.68,11.67,57.79,57.79,0,0,1,2.89,12.66c.13,1.08.18,2.19.28,3.28l.08,3.21a58,58,0,0,1-.39,6.49l-1.79-2,75-.15c12.5,0,25-.07,37.51,0l37.51.07h3.9l-2.4,3.06-41.66,53.06-.49.63-.79,0q-11.74.62-23.45,1t-23.47.52c-7.83.06-15.66,0-23.5-.24-3.92-.13-7.85-.34-11.78-.68q-2.95-.25-5.9-.67c-1-.16-2-.32-3-.53l-2.83-.62c-3.72-.7-7.62-1.06-11.48-1.4s-7.76-.59-11.66-.82c-7.79-.45-15.58-.77-23.39-1s-15.61-.45-23.41-.55a56.11,56.11,0,0,1-23-5.22l.71-.1L450.58,206Z" transform="translate(-7.94 -17.87)"/><path class="cls-1" d="M469,96.67s-27.33-32-63.33-33.33S339,80,339,80l30.67,38s41.3-11.33,54-10S457,122.67,457,122.67" transform="translate(-7.94 -17.87)"/><path class="cls-2" d="M469,96.67c-2-2.16-4.23-4.19-6.46-6.15s-4.52-3.86-6.87-5.66a113.35,113.35,0,0,0-14.86-9.67q-3.88-2.12-7.92-3.89t-8.24-3.08a78.87,78.87,0,0,0-8.49-2.14c-1.43-.3-2.87-.47-4.31-.69s-2.89-.33-4.34-.37c-.71,0-1.49-.09-2.13-.09l-2.23,0c-1.49,0-3,0-4.46.06-2.91.23-5.79.28-8.71.71-1.45.19-2.92.31-4.36.57l-4.34.75c-1.45.24-2.87.61-4.31.91l-2.15.47L372.7,69c-1.41.39-2.85.72-4.25,1.15l-4.22,1.27-4.17,1.42c-1.39.48-2.75,1-4.13,1.54q-4.11,1.6-8.11,3.43c-2.65,1.23-5.32,2.55-7.78,3.95l.54-3,15.28,19c5.11,6.33,10.14,12.73,15.21,19.1l-1.85-.6c3.72-1,7.44-1.9,11.17-2.79s7.48-1.7,11.23-2.5,7.52-1.54,11.31-2.18c1.89-.35,3.79-.62,5.7-.9s3.82-.5,5.74-.71l2.9-.24c1-.07,2-.07,2.93-.11a28.73,28.73,0,0,1,3,.1c.27,0,.46,0,.79.06l.71.13,1.41.26c1,.22,1.92.5,2.88.75l2.76.93,2.7,1.06,2.65,1.15a138.64,138.64,0,0,1,20,11.38c-3.3-1.94-6.68-3.72-10.08-5.44q-2.56-1.29-5.15-2.48c-1.73-.79-3.48-1.53-5.25-2.24l-2.66-1-2.69-.9-2.72-.76c-.91-.18-1.78-.4-2.7-.56l-1.42-.18-.71-.09c-.14,0-.43,0-.64,0a26.61,26.61,0,0,0-2.76,0c-.93.07-1.86.1-2.8.2l-2.81.34c-1.87.27-3.74.55-5.61.9s-3.73.7-5.59,1.09c-3.73.74-7.44,1.6-11.15,2.46s-7.4,1.8-11.09,2.78-7.38,1.92-11,2.95L369,120l-.74-.91c-5.15-6.3-10.34-12.57-15.45-18.9l-15.38-19L336,79.42l2-1.15c2.72-1.54,5.4-2.83,8.16-4.1s5.54-2.4,8.35-3.48c1.42-.52,2.82-1.07,4.25-1.55l4.29-1.43c2.89-.86,5.78-1.74,8.72-2.42l2.2-.54,2.22-.45c1.48-.28,2.95-.64,4.44-.86l4.47-.7c1.49-.24,3-.34,4.5-.51,3-.39,6.06-.42,9.09-.59,1.5,0,3,0,4.47.06l2.23,0c.85,0,1.55.11,2.33.16,1.52.08,3,.33,4.54.51s3,.49,4.48.84a72.88,72.88,0,0,1,8.75,2.48q4.27,1.54,8.36,3.48c2.71,1.32,5.37,2.73,7.95,4.28A114.85,114.85,0,0,1,456.35,84,102.25,102.25,0,0,1,469,96.67Z" transform="translate(-7.94 -17.87)"/><path class="cls-1" d="M122.86,203.18s-33.52-8.51-43.52-18.51-18-36.67-18-36.67S60,174.67,68.67,184.67s41.09,30.56,41.09,30.56" transform="translate(-7.94 -17.87)"/><path class="cls-2" d="M122.86,203.18c-1.82-.37-3.62-.77-5.43-1.19s-3.6-.89-5.39-1.36q-5.38-1.44-10.68-3.19c-1.76-.6-3.52-1.21-5.26-1.88l-2.61-1-2.59-1.1c-.87-.35-1.72-.75-2.56-1.17s-1.71-.79-2.53-1.28l-2.49-1.39L80.89,188c-.8-.54-1.54-1.24-2.3-1.86l-.29-.24-.07-.06,0,0-.09-.09L78,185.6l-.47-.51-.95-1c-.64-.67-1.23-1.53-1.84-2.29s-1.09-1.58-1.65-2.37-1-1.6-1.51-2.42-1-1.63-1.41-2.46c-.92-1.65-1.76-3.33-2.6-5s-1.59-3.4-2.31-5.13-1.44-3.46-2.11-5.2-1.32-3.5-1.94-5.26-1.22-3.52-1.78-5.34l3.91-.47c-.07,1.77-.1,3.63-.08,5.46s.08,3.66.19,5.49a91.06,91.06,0,0,0,1.25,10.85,39.76,39.76,0,0,0,3.07,10.18c.18.4.39.77.6,1.14a11.92,11.92,0,0,0,.67,1.08,11.47,11.47,0,0,0,.74,1l.19.25.19.2.47.51a51.91,51.91,0,0,0,3.84,3.83l2.06,1.83,2.12,1.78c1.4,1.2,2.88,2.32,4.3,3.5s2.9,2.31,4.39,3.42,3,2.25,4.44,3.36c3,2.25,6,4.45,9,6.65l9,6.58q-4.88-2.74-9.66-5.66c-3.19-1.93-6.34-3.94-9.48-6-1.57-1-3.11-2.06-4.66-3.11s-3.08-2.13-4.62-3.19-3-2.18-4.53-3.34l-2.23-1.72-2.2-1.79a56.22,56.22,0,0,1-4.23-3.88l-.49-.5-.29-.3-.25-.3a14.77,14.77,0,0,1-.94-1.22,15.08,15.08,0,0,1-.83-1.28c-.27-.43-.51-.87-.73-1.31a43.24,43.24,0,0,1-3.66-11c-.39-1.88-.66-3.77-.9-5.65s-.4-3.78-.53-5.67-.2-3.78-.24-5.67,0-3.76,0-5.71l.49-11.77,3.42,11.3c.52,1.71,1.09,3.47,1.69,5.2s1.21,3.46,1.86,5.17,1.31,3.42,2,5.1,1.44,3.35,2.17,5,1.53,3.3,2.38,4.9c.4.82.84,1.6,1.29,2.38s.88,1.58,1.37,2.32a43.9,43.9,0,0,0,3,4.31l.91,1.05.45.53.11.13v0l0,0,0,0,.06.05.24.21c.65.56,1.23,1.18,1.94,1.71l2.15,1.56,2.3,1.42c.75.49,1.58.88,2.37,1.32s1.59.88,2.42,1.27l2.46,1.22,2.5,1.14c1.67.76,3.38,1.45,5.07,2.16s3.41,1.39,5.14,2,3.46,1.28,5.19,1.93C115.83,200.83,119.33,202,122.86,203.18Z" transform="translate(-7.94 -17.87)"/><path class="cls-4" d="M526.34,73.78c-13.17,0-24.39,12.92-28.69,31-4.09-3.57-8.77-5.28-13.31-4.37-10.42,2.07-16.22,17.05-13,33.47s14.35,28,24.77,26a14.1,14.1,0,0,0,8.37-5.49c5.55,8.78,13.28,14.24,21.83,14.24,16.88,0,30.57-21.24,30.57-47.43S543.22,73.78,526.34,73.78Z" transform="translate(-7.94 -17.87)"/><path class="cls-2" d="M526.34,73.78c-.94.08-1.9.08-2.83.23a19.65,19.65,0,0,0-2.77.62l-1.35.42c-.45.14-.87.37-1.31.55s-.87.37-1.29.59l-1.23.71a21.41,21.41,0,0,0-2.36,1.57l-.58.41-.54.46-1.07.93c-.72.61-1.34,1.33-2,2s-1.22,1.44-1.83,2.16-1.1,1.53-1.65,2.3-1,1.61-1.49,2.4-.89,1.66-1.34,2.49-.81,1.7-1.2,2.56-.74,1.73-1.06,2.62-.67,1.76-.93,2.67-.58,1.79-.79,2.71l-.67,2.74-.16.64-.51-.42a19.89,19.89,0,0,0-5.37-3.27,13.3,13.3,0,0,0-6.06-.95c-.25,0-.51.05-.76.09l-.7.13-1.55.47a9.93,9.93,0,0,0-1.37.62,6.65,6.65,0,0,0-1.28.77,14.82,14.82,0,0,0-4.21,4.4,23.62,23.62,0,0,0-1.53,2.69,29.92,29.92,0,0,0-1.12,2.9l-.47,1.49-.35,1.53c-.27,1-.37,2.06-.54,3.08s-.19,2.08-.27,3.12-.05,2.09,0,3.14a45.45,45.45,0,0,0,.65,6.24l.29,1.54.07.39,0,.1v.05l0,.2.2.78c.26,1,.51,2.11.86,3.06l.47,1.46c.17.49.38,1,.57,1.45l.58,1.45.67,1.4a38.7,38.7,0,0,0,3.07,5.35,29.49,29.49,0,0,0,4,4.59,23.75,23.75,0,0,0,2.3,1.9c.4.28.83.52,1.24.78.21.12.41.27.62.38l.65.31a16.19,16.19,0,0,0,2.65,1l1.37.25a7.87,7.87,0,0,0,1.37.1c.23,0,.46,0,.68,0l.68-.09.68-.08.17,0h0l.1,0,.39-.09a11,11,0,0,0,2.51-1,13.68,13.68,0,0,0,4.2-3.71l1.72-2.23,1.54,2.39a38.26,38.26,0,0,0,5.6,7,24.75,24.75,0,0,0,7.21,4.88,19.07,19.07,0,0,0,8.39,1.58,19.42,19.42,0,0,0,8.23-2.31,24.72,24.72,0,0,0,3.7-2.41,28.29,28.29,0,0,0,3.33-3,38.9,38.9,0,0,0,5.45-7.27,57,57,0,0,0,6.53-17.23,70.22,70.22,0,0,0,1.32-9.23c.12-1.55.19-3.12.21-4.66s0-3.13-.09-4.69a69.45,69.45,0,0,0-1.1-9.3,58.88,58.88,0,0,0-2.43-9.06,51,51,0,0,0-3.93-8.53A37.86,37.86,0,0,0,543,81.54a30.84,30.84,0,0,0-3.53-3.12,27.8,27.8,0,0,0-4-2.47A24.15,24.15,0,0,0,531,74.35,22.51,22.51,0,0,0,526.34,73.78Zm0,0a22.52,22.52,0,0,1,4.69.54,24.21,24.21,0,0,1,4.45,1.58,27.9,27.9,0,0,1,4,2.44,31,31,0,0,1,3.57,3.1,40.94,40.94,0,0,1,5.81,7.46,51.49,51.49,0,0,1,4.17,8.51,67.48,67.48,0,0,1,2.78,9.08,70.54,70.54,0,0,1,1.49,9.4c.14,1.59.24,3.19.28,4.75s0,3.19,0,4.78a72.05,72.05,0,0,1-1,9.52,59.37,59.37,0,0,1-6.1,18.22,41.86,41.86,0,0,1-5.56,8,29.33,29.33,0,0,1-7.69,6.31,23,23,0,0,1-9.75,3,21.89,21.89,0,0,1-10-1.72,28.63,28.63,0,0,1-8.41-5.58,40.15,40.15,0,0,1-6.27-7.68l3.26.16a17.63,17.63,0,0,1-5.49,4.73,14.74,14.74,0,0,1-3.52,1.33l-.39.09-.1,0-.16,0-.23,0-.93.11-.93.1c-.31,0-.62,0-.93,0a11.5,11.5,0,0,1-1.85-.15l-1.81-.36a20,20,0,0,1-3.36-1.33,10.13,10.13,0,0,1-1.55-.87c-.49-.33-1-.63-1.47-1a27.44,27.44,0,0,1-2.63-2.28,33.08,33.08,0,0,1-4.36-5.27,42.13,42.13,0,0,1-3.23-5.93l-.66-1.55c-.2-.52-.38-1.05-.57-1.58s-.38-1-.55-1.59l-.46-1.64c-.34-1.1-.54-2.15-.76-3.2l-.17-.79,0-.2,0-.15,0-.1-.06-.41L469.6,132a48.19,48.19,0,0,1-.43-6.64c0-1.11.1-2.22.14-3.33s.23-2.21.42-3.31.38-2.19.71-3.26l.44-1.61.57-1.58a32,32,0,0,1,1.33-3.08,25.48,25.48,0,0,1,1.78-2.87,15.49,15.49,0,0,1,1-1.34l1.15-1.25a16.28,16.28,0,0,1,2.68-2.09,8,8,0,0,1,1.52-.83,12.28,12.28,0,0,1,1.6-.64l1.57-.41a13.15,13.15,0,0,1,1.75-.21,14.51,14.51,0,0,1,6.57,1.28,20.83,20.83,0,0,1,5.5,3.65l-.67.21L498,102c.25-.92.61-1.8.9-2.71s.65-1.79,1-2.67.71-1.76,1.13-2.62.79-1.73,1.27-2.55.88-1.69,1.41-2.48,1-1.62,1.56-2.38S506.42,85,507,84.29s1.21-1.46,1.87-2.14,1.31-1.38,2-2l1.08-.92.54-.46.58-.41a21.51,21.51,0,0,1,2.38-1.56l1.24-.7c.42-.22.87-.38,1.3-.58s.86-.4,1.31-.54l1.36-.41a19.68,19.68,0,0,1,2.78-.6C524.44,73.84,525.4,73.85,526.34,73.78Z" transform="translate(-7.94 -17.87)"/><ellipse class="cls-2" cx="519.59" cy="116.21" rx="4.6" ry="10.75"/><ellipse class="cls-2" cx="490.87" cy="140.59" rx="2.71" ry="7.17" transform="translate(-25.93 80.45) rotate(-11.23)"/><path class="cls-3" d="M463.35,99.6s4.49-8.43,9.23-11.07,12.12-2.11,12.12-2.11-6.87-11.07-14.24-6.85S463.35,99.6,463.35,99.6Z" transform="translate(-7.94 -17.87)"/><path class="cls-2" d="M463.35,99.6a30.37,30.37,0,0,1,1.35-3.15,32.77,32.77,0,0,1,1.66-3c.3-.49.61-1,.94-1.46s.7-.94,1.06-1.4a19,19,0,0,1,2.54-2.6l.79-.56.2-.14.24-.13.37-.21a13.93,13.93,0,0,1,1.71-.81c.57-.23,1.15-.43,1.74-.61s1.17-.32,1.76-.43a27.69,27.69,0,0,1,3.54-.51c.59,0,1.18-.08,1.78-.1s1.17,0,1.83,0l-1.78,3c-.37-.55-.87-1.2-1.35-1.77A22.36,22.36,0,0,0,480.19,84a14.76,14.76,0,0,0-3.41-2.62,6.06,6.06,0,0,0-3.57-.8,5,5,0,0,0-1.74.53l-.11,0,.14-.09h0l0,0-.06,0-.26.17-.52.34a3.88,3.88,0,0,0-.48.33l-.31.31a11.62,11.62,0,0,0-1.35,1.5,16.49,16.49,0,0,0-1.16,1.92c-.37.67-.66,1.39-1,2.11s-.57,1.48-.81,2.23-.46,1.53-.67,2.32-.39,1.57-.57,2.37C463.9,96.34,463.62,98,463.35,99.6Zm0,0a32.8,32.8,0,0,1-.36-5c0-.84,0-1.68.1-2.52a25.2,25.2,0,0,1,.28-2.53c.13-.84.29-1.69.49-2.53a17.65,17.65,0,0,1,.78-2.5,19.52,19.52,0,0,1,1.13-2.45,12,12,0,0,1,1.74-2.34l.55-.57a5.11,5.11,0,0,1,.5-.41l.49-.38.24-.19.06,0,0,0h0l.15-.1.17-.09a8.7,8.7,0,0,1,2.9-1.07,9.59,9.59,0,0,1,6,1A17.18,17.18,0,0,1,483,81.19a26.34,26.34,0,0,1,1.77,2,25,25,0,0,1,1.56,2.22l2,3.27-3.82-.31c-.46,0-1-.06-1.54-.07s-1.06,0-1.59,0c-1.06,0-2.12.1-3.16.23-.52.05-1,.16-1.55.24s-1,.2-1.5.34c-.26.06-.46.14-.69.21l-.34.11-.39.16-.39.17-.1,0,0,0h0l0,0-.16.09-.64.35c-.42.28-.86.54-1.27.87s-.82.67-1.23,1-.79.73-1.17,1.13-.78.78-1.15,1.18C466.17,96.06,464.74,97.8,463.35,99.6Z" transform="translate(-7.94 -17.87)"/><path class="cls-3" d="M505.26,66.4s11.63-7.38,17.67-6.32,16.58,6.32,16.58,6.32-3.41-16.86-12-17.39S505.26,66.4,505.26,66.4Z" transform="translate(-7.94 -17.87)"/><path class="cls-2" d="M505.26,66.4A45.78,45.78,0,0,1,509,63.7c1.3-.85,2.65-1.62,4-2.34.7-.35,1.4-.71,2.13-1s1.48-.59,2.23-.86a20.11,20.11,0,0,1,2.38-.64,8.68,8.68,0,0,1,1.26-.19l.65-.06.68,0,.69,0,.62.1c.38.06.75.12,1.17.22.83.17,1.59.37,2.36.58s1.52.44,2.27.68,1.48.52,2.22.78c1.47.54,2.92,1.12,4.36,1.72S539,64,540.38,64.67l-2.77,2.12c-.21-.93-.49-2-.79-2.93s-.63-2-1-2.91a31.94,31.94,0,0,0-2.57-5.43,11.93,11.93,0,0,0-3.68-4l-.54-.29L528.5,51c-.19,0-.37-.11-.56-.15l-.29,0-.14,0h-.06c-.26,0-.56,0-.77,0l-.52.05a9.69,9.69,0,0,0-1.3.31,17.73,17.73,0,0,0-2.67,1.12,29.73,29.73,0,0,0-2.61,1.58,60.48,60.48,0,0,0-5,3.8c-1.6,1.38-3.21,2.77-4.74,4.26S506.78,64.87,505.26,66.4Zm0,0c1.11-1.85,2.36-3.61,3.66-5.34s2.68-3.4,4.18-5a45.85,45.85,0,0,1,4.78-4.54,32.73,32.73,0,0,1,2.73-2,17.91,17.91,0,0,1,3.13-1.61,13.1,13.1,0,0,1,1.8-.53c.35-.06.72-.11,1.08-.15s.55,0,.83,0h.34l.25,0,.51.05c.34,0,.67.14,1,.21s.64.21,1,.32.6.28.91.42a11.31,11.31,0,0,1,3,2.33,19.4,19.4,0,0,1,2.17,2.83,32,32,0,0,1,3,6.12q.57,1.58,1,3.18c.31,1.08.58,2.12.82,3.28l.79,3.85-3.56-1.73-4.07-2c-1.37-.65-2.74-1.29-4.13-1.88s-2.78-1.15-4.17-1.68c-.7-.25-1.4-.5-2.06-.7-.32-.11-.7-.2-1.07-.3l-.51-.12-.46-.06-.46-.07h-.5a6.4,6.4,0,0,0-1,0,17.65,17.65,0,0,0-2.13.31c-.71.17-1.44.32-2.15.55s-1.44.43-2.16.67-1.43.5-2.14.78l-2.13.84C508.07,65.13,506.66,65.74,505.26,66.4Z" transform="translate(-7.94 -17.87)"/><path class="cls-2" d="M646.67,140.59,701,142l-27.18,34.77s-18.51,1.84-22.51-8.13S646.67,140.59,646.67,140.59Z" transform="translate(-7.94 -17.87)"/><path class="cls-5" d="M430.7,219.95S227,169.28,189,168.64s-114,0-114,0,8-11,33-23.8,80,.35,92-4.24,26-19.39,26-19.39,132,45.95,144,49.37,64.67,8.76,64.67,8.76S403,185.07,404,194.54,456.44,205,456.44,205Z" transform="translate(-7.94 -17.87)"/><path class="cls-2" d="M430.7,219.95l-44-10.23q-22-5.08-44-10l-44.08-9.75q-22.06-4.79-44.18-9.26c-14.75-2.94-29.53-5.78-44.36-8.06-3.71-.56-7.42-1.08-11.13-1.5a100.7,100.7,0,0,0-11.08-.8c-7.53-.11-15-.15-22.56-.18-30.09-.08-60.19.11-90.29.39l-3.86,0,2.31-3.06c.64-.85,1.21-1.46,1.84-2.15s1.25-1.3,1.89-1.92c1.28-1.25,2.61-2.43,4-3.58a104.6,104.6,0,0,1,8.45-6.39c2.89-2,5.89-3.85,8.9-5.66,1.53-.86,3-1.75,4.58-2.59s3.06-1.66,4.68-2.47a47.6,47.6,0,0,1,10.26-3.5,80.23,80.23,0,0,1,10.53-1.62,167.59,167.59,0,0,1,21.05-.41c7,.24,13.94.75,20.86,1.29l10.36.78c3.44.23,6.88.43,10.27.44a47,47,0,0,0,5-.21,18.28,18.28,0,0,0,2.31-.39,9,9,0,0,0,1-.31c.39-.16.82-.32,1.19-.49a51.15,51.15,0,0,0,8.63-5,100.68,100.68,0,0,0,8-6.33c2.57-2.24,5.1-4.6,7.44-7l.82-.85,1.09.38,102.67,35.85L355,164.24c4.28,1.47,8.58,2.93,12.86,4.33,1.06.32,2.15.73,3.18,1s2.2.56,3.28.76c2.15.46,4.39.83,6.61,1.22,8.91,1.45,17.89,2.65,26.88,3.77s18,2.19,27,3.2l5.79.65-5.72,1c-3.68.67-7.37,1.52-11,2.51a78.09,78.09,0,0,0-10.64,3.65,30.85,30.85,0,0,0-4.89,2.64,9,9,0,0,0-3.51,3.89,3.93,3.93,0,0,0-.23,1.21,3.77,3.77,0,0,0,0,.62,2.46,2.46,0,0,0,.18.53,5,5,0,0,0,1.74,1.83,20.58,20.58,0,0,0,5,2.27,77.82,77.82,0,0,0,11,2.5c3.73.61,7.48,1.08,11.24,1.47q11.29,1.14,22.65,1.52l.77,0-.67.38Zm0,0,25.63-15.11.11.41c-7.58-.15-15.16-.53-22.72-1.22-3.78-.35-7.55-.77-11.31-1.35a78.67,78.67,0,0,1-11.17-2.41,21.5,21.5,0,0,1-5.32-2.34,6,6,0,0,1-2.13-2.24,3.41,3.41,0,0,1-.27-.82,5.25,5.25,0,0,1-.07-.8,5,5,0,0,1,.27-1.57,10,10,0,0,1,3.87-4.52,32.07,32.07,0,0,1,5-2.84,79.45,79.45,0,0,1,10.77-3.91c3.66-1.07,7.35-2,11.11-2.73l.07,1.69L421,178.85c-4.51-.45-9-1-13.52-1.47-9-1-18-2.13-27-3.5-2.25-.37-4.48-.71-6.77-1.18-1.15-.2-2.25-.47-3.35-.74s-2.22-.65-3.33-1c-4.35-1.36-8.65-2.78-13-4.21l-25.79-8.63c-17.18-5.8-34.36-11.58-51.49-17.5l-51.41-17.74,1.91-.47c-2.48,2.57-5,5-7.67,7.29a104.31,104.31,0,0,1-8.29,6.59,54.43,54.43,0,0,1-9.33,5.44c-.43.19-.81.34-1.22.51a12.46,12.46,0,0,1-1.49.47,21.87,21.87,0,0,1-2.82.49,50.59,50.59,0,0,1-5.4.25c-3.55,0-7-.19-10.52-.41l-10.4-.74c-6.92-.51-13.81-1-20.7-1.21a163.77,163.77,0,0,0-20.55.47,83.48,83.48,0,0,0-10,1.54,43.71,43.71,0,0,0-9.41,3.16c-1.48.73-3,1.58-4.54,2.37s-3,1.68-4.49,2.51c-2.94,1.75-5.87,3.53-8.68,5.48a100.79,100.79,0,0,0-8.17,6.14c-1.3,1.09-2.57,2.21-3.77,3.38q-.91.87-1.76,1.78c-.54.59-1.15,1.26-1.56,1.79l-1.55-3c30.11-.17,60.22-.26,90.34-.07,7.53.06,15.07.12,22.59.26a100.29,100.29,0,0,1,11.43.87c3.76.47,7.5,1,11.23,1.64,14.9,2.45,29.67,5.45,44.41,8.55s29.44,6.38,44.12,9.73l22,5.09c7.33,1.7,14.65,3.48,22,5.24q22,5.31,43.86,10.77T430.7,219.95Z" transform="translate(-7.94 -17.87)"/><path class="cls-5" d="M447,204.65s25.08-5.31,37.7-4.65,29,9.32,29,9.32-17.61,3.8-29,5.9a39,39,0,0,1-21.35-2.56s10,1.33,17,8.67a67.22,67.22,0,0,1,10.53,14.34s-13.28,1-20.41-4.34-30.11-22-30.11-22" transform="translate(-7.94 -17.87)"/><path class="cls-2" d="M447,204.65c2.77-.73,5.55-1.44,8.35-2.07s5.61-1.24,8.43-1.77,5.66-1,8.52-1.42c1.42-.23,2.87-.37,4.3-.54s2.89-.28,4.35-.33c.73,0,1.46-.08,2.2-.07h1.11c.21,0,.32,0,.61,0l.54,0c.72.05,1.41.06,2.16.15l2.26.28c1.46.26,2.91.52,4.34.88s2.85.72,4.25,1.14,2.79.88,4.17,1.35,2.74,1,4.1,1.52,2.7,1.1,4,1.7,2.64,1.2,4,1.88l5.53,2.77-6.09,1.32-12.58,2.73c-4.19.91-8.4,1.76-12.6,2.64l-3.15.66-.39.08-.2,0-.28,0-.79.12c-.55.07-1,.18-1.63.23l-1.78.16-1.72.06c-.57,0-1.14,0-1.71,0s-1.14,0-1.71-.09c-1.14-.07-2.27-.23-3.39-.4s-2.23-.41-3.33-.67-2.19-.57-3.27-.93a33,33,0,0,1-3.28-1.25l-16.72-7.5,18.08,2.85c1,.15,1.72.32,2.55.53s1.6.44,2.39.7,1.57.54,2.33.86,1.53.65,2.28,1,1.49.75,2.21,1.18,1.42.89,2.12,1.35,1.37,1,2,1.55l1,.83.91.89.45.45.24.24.19.22.78.86c.52.58,1.07,1.23,1.58,1.84q1.53,1.85,2.94,3.79t2.69,4c.43.68.85,1.36,1.24,2.06s.77,1.39,1.17,2.18l1.41,2.84-3.09.13c-1.35.06-2.57,0-3.85,0s-2.53-.16-3.79-.3-2.52-.35-3.77-.59a36.47,36.47,0,0,1-3.73-1,23.21,23.21,0,0,1-3.62-1.52,15.15,15.15,0,0,1-1.72-1l-.83-.58c-.27-.18-.49-.37-.73-.56l-5.78-4.5-11.48-9.08Q446,214,440.35,209.32q6.16,4,12.26,8l12.14,8.19,6,4.14c.25.17.51.36.75.5l.7.43a12.1,12.1,0,0,0,1.47.76,23,23,0,0,0,3.18,1.14,33,33,0,0,0,3.38.73c1.15.18,2.31.31,3.48.39s2.34.13,3.52.12,2.38,0,3.46-.13l-1.68,3c-.32-.58-.73-1.25-1.12-1.88s-.8-1.27-1.22-1.89c-.83-1.25-1.72-2.47-2.63-3.67s-1.87-2.35-2.86-3.49c-.5-.56-1-1.09-1.5-1.65l-.8-.84-.2-.21-.05-.05h0l0,0h0l0,0-.1-.09-.38-.36-.77-.72-.82-.67c-.53-.47-1.14-.84-1.71-1.26s-1.19-.78-1.82-1.11-1.26-.69-1.9-1-1.31-.6-2-.86-1.35-.5-2-.73-1.38-.42-2.08-.59-1.44-.32-2-.41l1.36-4.65c.78.34,1.79.71,2.73,1s1.93.56,2.91.8a39.37,39.37,0,0,0,6,.91c.5.05,1,.08,1.5.09s1,.05,1.49,0l1.49,0,1.42-.11c.45,0,1-.14,1.55-.2l.79-.12h.12l.2,0,.39-.08,3.14-.63c4.19-.83,8.37-1.69,12.57-2.49l12.59-2.39-.57,4.1c-1.19-.64-2.47-1.28-3.73-1.88s-2.55-1.18-3.83-1.76-2.58-1.11-3.88-1.64-2.62-1-3.94-1.46-2.65-.89-4-1.26-2.69-.7-4-1l-2-.37c-.67-.12-1.41-.18-2.11-.27l-.53-.06-.46,0-1-.06c-.69-.05-1.39-.06-2.09-.06-1.4,0-2.81,0-4.22.07s-2.83.13-4.25.24c-2.84.17-5.68.46-8.52.76s-5.68.63-8.52,1S449.83,204.22,447,204.65Z" transform="translate(-7.94 -17.87)"/><path class="cls-1" d="M613.35,196.79S544.4,192,527.53,184.67a269.26,269.26,0,0,1-30.87-16" transform="translate(-7.94 -17.87)"/><path class="cls-2" d="M613.35,196.79H612c-.89,0-2.21,0-3.87,0s-3.69,0-6-.12-4.94-.14-7.79-.3-5.95-.29-9.21-.53-6.71-.46-10.27-.81-7.24-.66-11-1.13c-1.86-.21-3.74-.47-5.63-.72s-3.78-.49-5.67-.79-3.78-.59-5.65-.94l-5.6-1q-2.78-.6-5.49-1.25c-1.81-.51-3.59-1-5.34-1.55l-2.6-1c-.43-.17-.86-.31-1.27-.51l-1.17-.56c-1.54-.73-3.06-1.5-4.54-2.24-2.94-1.48-5.66-3-8.15-4.39-5-2.83-9-5.4-11.78-7.26s-4.3-3-4.3-3l4.7,2.32,5.4,2.61,7,3.3c2.58,1.18,5.4,2.42,8.37,3.73,1.49.63,3,1.29,4.61,1.93l1.2.49c.38.17.78.27,1.17.41l2.39.81c1.67.45,3.4.86,5.14,1.29s3.58.7,5.38,1.09l5.52,1c1.85.32,3.73.57,5.59.86s3.74.58,5.6.85,3.72.55,5.58.78l10.86,1.47,19.29,2.56c5.65.75,10.36,1.43,13.66,1.91Z" transform="translate(-7.94 -17.87)"/></svg>